<svg id="图层_1" data-name="图层 1" xmlns="http://www.w3.org/2000/svg" viewBox="0 0 451.86 51.34"><defs><style>.cls-1{fill:#231815;fill-rule:evenodd;}</style></defs><path class="cls-1" d="M174.21,414.19V427c-.69,0-1.33.06-2,.06H123.65q-16.71,0-33.4,0a12.83,12.83,0,0,0-3,.37,3.1,3.1,0,0,0-2.53,3.11c0,.83,0,1.66,0,2.75h89.4v12.88H71.87a12.62,12.62,0,0,1-.11-1.31c0-11,0-21.93,0-32.9,0-9,5.79-15.59,14.63-16.89a14.28,14.28,0,0,1,2.17-.1h85.58v12.79c-.6,0-1.24.11-1.87.11H137.53q-23.55,0-47.09,0a14.3,14.3,0,0,0-3.44.45,2.89,2.89,0,0,0-2.22,2.82c-.07,1,0,2.1,0,3.17,9.94-.39,19.82-.13,29.7-.18s19.92,0,29.89,0Z" transform="translate(-71.74 -395)"/><path class="cls-1" d="M306.5,395.1h12.81c0,.66.09,1.3.09,1.95q0,11.85,0,23.7a14.06,14.06,0,0,0,1,5.7c1.7,3.95,4.93,5.88,9,6.63a17.54,17.54,0,0,0,3.15.25H396V395.11h12.64c.34,1.28.39,49.37,0,51.13-.51,0-1.05.09-1.58.09H332.46a26.5,26.5,0,0,1-18.32-6.83,22.34,22.34,0,0,1-7.29-13.7,37.88,37.88,0,0,1-.42-5.31c-.05-8.08,0-16.14,0-24.21,0-.33,0-.66.09-1.18" transform="translate(-71.74 -395)"/><path class="cls-1" d="M424.15,445.9,462,420.65,424.2,395.4l.11-.32c.47,0,.95-.06,1.42-.06,6.62,0,13.25,0,19.87,0a4.37,4.37,0,0,1,2.62.83q11.91,8,23.86,15.95l1.67,1.07,4.53-3c7.08-4.73,14.15-9.47,21.24-14.16a3.49,3.49,0,0,1,1.82-.62c7.07,0,14.14,0,21.2,0,.21,0,.41.05,1.05.13l-38.19,25.5,37.94,25.29c0,.1,0,.19-.07.29-.47,0-.94.1-1.41.1-6.63,0-13.24,0-19.87,0a4.5,4.5,0,0,1-2.63-.82q-11.92-8-23.88-15.91c-.55-.37-1.11-.74-1.72-1.13-.54.33-1.06.64-1.55,1q-12,8-24,16a5,5,0,0,1-2.95.89c-6.45,0-12.9,0-19.36,0-.54,0-1.08-.05-1.62-.08,0-.11-.06-.24-.1-.35" transform="translate(-71.74 -395)"/><path class="cls-1" d="M291.49,433.34v12.91c-.73,0-1.44.08-2.13.08q-36.9,0-73.81,0a32,32,0,0,1-7.6-.84,24.07,24.07,0,0,1-18.7-22.09c-.14-2-.17-4-.17-6,0-6.8,0-13.59,0-20.38v-1.9h13v2c0,7.85,0,15.7,0,23.55a16.69,16.69,0,0,0,.4,3.8c1.19,5,4.65,7.64,9.54,8.59a17.5,17.5,0,0,0,3.32.26q36.9,0,73.8,0Z" transform="translate(-71.74 -395)"/></svg>